# xmcd CD database file
#
# Track frame offsets:
#	150
#	17784
#	36451
#
# Disc length: 708 seconds
#
# Revision: 0
# Processed by: cddbd v1.5.1PL0 Copyright (c) Steve Scherf et al.
# Submitted via: CDex 1.51
#
DISCID=2002c203
DTITLE=cune - Butterfly
DYEAR=1900
DGENRE=Rock
TTITLE0=Butterfly
TTITLE1=クローバー
TTITLE2=グラフィティ'99
EXTD=
EXTT0=
EXTT1=
EXTT2=
PLAYORDER=
